<?xml version="1.0" standalone="no"?>
<!DOCTYPE svg PUBLIC "-//W3C//DTD SVG 20010904//EN"
 "http://www.w3.org/TR/2001/REC-SVG-20010904/DTD/svg10.dtd">
<svg version="1.0" xmlns="http://www.w3.org/2000/svg"
 width="298.000000pt" height="143.000000pt" viewBox="0 0 298.000000 143.000000"
 preserveAspectRatio="xMidYMid meet">
<metadata>
Created by potrace 1.10, written by Peter Selinger 2001-2011
</metadata>
<g transform="translate(0.000000,143.000000) scale(0.100000,-0.100000)"
fill="#000000" stroke="none">
<path d="M360 1276 c-84 -22 -159 -84 -195 -159 -15 -31 -15 -31 2 -7 40 58
112 118 167 139 67 25 113 26 265 6 63 -9 116 -13 118 -11 3 3 -17 8 -44 11
-26 4 -86 13 -132 21 -99 17 -121 17 -181 0z"/>
<path d="M325 1190 c-73 -28 -120 -72 -155 -144 l-31 -63 3 -284 3 -284 30
-54 c36 -65 83 -105 154 -132 51 -19 73 -20 325 -17 261 3 273 4 316 26 64 33
115 87 141 146 21 49 22 64 21 327 0 263 -1 279 -22 328 -30 68 -105 136 -173
156 -40 12 -106 15 -306 14 -228 0 -261 -2 -306 -19z m606 -26 c63 -19 146
-95 156 -144 3 -17 9 -32 13 -35 3 -2 5 -127 2 -277 -4 -250 -6 -277 -25 -326
-15 -36 -32 -59 -52 -70 -16 -9 -32 -20 -35 -23 -13 -17 -92 -50 -112 -48 -13
2 -27 1 -33 -1 -5 -3 -116 -3 -245 0 -234 5 -235 5 -293 34 -32 15 -61 36 -64
45 -3 9 -21 37 -38 62 l-33 46 -1 193 c-1 107 -5 198 -7 202 -3 5 0 16 7 24
10 13 10 17 -1 24 -11 7 -11 11 -1 23 8 10 9 17 1 22 -16 10 -12 38 5 31 8 -3
15 -1 15 3 0 5 -6 11 -12 14 -13 4 -13 5 30 95 21 45 84 93 141 108 74 20 512
18 582 -2z"/>
<path d="M423 1027 c-3 -5 -14 -7 -24 -4 -11 3 -19 1 -19 -4 0 -6 -8 -9 -17
-7 -14 2 -17 -3 -15 -20 2 -14 -1 -21 -9 -20 -17 4 -16 -69 1 -101 7 -13 11
-42 10 -65 -2 -50 -2 -89 1 -186 2 -47 -2 -86 -11 -105 -7 -16 -12 -34 -11
-38 0 -4 -3 -16 -9 -26 -10 -20 7 -46 47 -68 17 -10 22 -9 27 2 3 8 13 15 23
15 10 0 36 6 58 13 58 18 352 16 382 -3 16 -10 29 -12 49 -5 42 15 50 36 36
92 -7 26 -12 59 -13 73 -1 44 10 172 15 177 3 3 -2 22 -10 43 -12 29 -13 43
-5 59 6 11 11 42 11 69 0 88 -61 131 -135 96 -20 -9 -50 -17 -68 -16 -204 2
-247 6 -247 25 0 14 -59 16 -67 4z m73 -42 c19 -21 29 -24 51 -18 36 10 161
10 193 0 20 -6 34 -2 63 17 47 32 55 32 90 1 31 -29 35 -67 13 -119 -12 -28
-11 -41 3 -94 14 -57 14 -67 -1 -125 -16 -62 -12 -106 16 -169 17 -38 -20 -71
-55 -50 -10 7 -27 12 -36 12 -10 1 -29 7 -43 14 -21 12 -30 12 -59 0 -41 -17
-131 -18 -166 -2 -20 9 -36 8 -83 -7 -31 -10 -67 -22 -79 -28 -42 -19 -75 14
-56 56 42 93 49 122 37 152 -15 35 -18 133 -5 168 7 17 4 35 -10 66 -37 84
-19 135 51 144 19 2 39 5 44 5 5 1 19 -9 32 -23z"/>
<path d="M830 970 c0 -13 7 -20 20 -20 13 0 20 7 20 20 0 13 -7 20 -20 20 -13
0 -20 -7 -20 -20z"/>
<path d="M377 973 c-12 -11 -8 -69 6 -103 l14 -32 20 35 c12 19 35 43 52 53
39 23 40 35 1 28 -22 -5 -31 -2 -36 10 -6 16 -44 22 -57 9z"/>
<path d="M564 952 c-6 -4 6 -20 33 -39 48 -36 52 -33 23 15 -20 32 -35 39 -56
24z"/>
<path d="M634 938 c9 -12 16 -32 16 -43 0 -12 15 -36 34 -54 l35 -34 29 24
c34 27 55 65 46 81 -12 20 -89 48 -132 48 -43 0 -43 0 -28 -22z m104 -24 c27
-19 28 -40 2 -54 -17 -9 -24 -6 -45 16 -26 28 -29 36 -18 47 11 12 37 8 61 -9z"/>
<path d="M780 951 c0 -5 15 -19 34 -32 18 -12 41 -34 49 -48 l16 -26 10 28 c6
16 11 42 11 59 0 30 -1 30 -18 15 -23 -21 -46 -22 -62 -2 -13 16 -40 20 -40 6z"/>
<path d="M487 915 c-38 -26 -78 -80 -92 -124 -4 -13 -3 -21 1 -18 5 2 20 1 33
-4 22 -9 23 -13 17 -59 -5 -36 -2 -58 9 -79 8 -17 15 -46 15 -66 0 -26 7 -42
23 -56 30 -25 42 -24 88 9 28 19 39 34 39 53 0 30 -15 39 -51 32 -54 -10 -89
56 -38 72 21 7 25 20 9 30 -5 3 -10 19 -10 35 0 22 12 38 50 70 28 23 50 46
50 50 0 7 -94 80 -103 80 -1 0 -19 -11 -40 -25z m79 -38 l27 -23 -24 -20 c-39
-31 -59 -66 -59 -105 0 -22 -7 -42 -18 -52 -25 -23 -33 -12 -26 34 5 29 1 44
-14 67 -21 28 -21 29 -2 59 20 33 57 63 77 63 6 0 24 -10 39 -23z m14 -309 c0
-5 -4 -6 -10 -3 -5 3 -7 0 -4 -8 3 -8 -3 -20 -12 -28 -13 -10 -16 -10 -10 -1
6 10 2 11 -17 7 -25 -7 -41 12 -31 38 5 15 84 11 84 -5z"/>
<path d="M810 881 c0 -11 -18 -34 -40 -53 l-41 -33 29 -28 c35 -33 51 -29 87
24 l28 39 -27 35 c-31 40 -36 42 -36 16z m7 -88 c-21 -22 -32 -11 -17 17 9 16
15 19 23 11 8 -8 7 -16 -6 -28z"/>
<path d="M598 799 c-46 -39 -60 -71 -38 -84 19 -12 10 -42 -15 -53 -45 -21
-25 -42 40 -42 36 0 60 -21 51 -45 -8 -22 77 51 114 97 17 20 30 39 30 42 0 3
-13 6 -30 6 -32 0 -56 30 -45 57 6 17 -30 63 -49 63 -6 -1 -32 -19 -58 -41z
m72 -14 c17 -20 12 -24 -41 -30 l-44 -6 25 25 c29 29 43 32 60 11z m-8 -58 c7
-7 21 -16 31 -20 18 -7 21 -24 11 -51 -8 -21 -25 -20 -63 2 -22 12 -31 24 -31
43 0 40 25 53 52 26z"/>
<path d="M620 713 c0 -16 45 -53 65 -53 13 0 3 24 -17 41 -23 19 -48 25 -48
12z"/>
<path d="M858 779 c-17 -28 -17 -30 2 -49 13 -13 20 -34 21 -62 0 -39 1 -41
11 -18 10 27 5 119 -9 144 -7 12 -12 9 -25 -15z"/>
<path d="M720 768 c0 -18 27 -44 37 -34 4 4 -3 16 -15 29 -18 17 -22 18 -22 5z"/>
<path d="M389 748 c-1 -7 0 -31 1 -53 2 -64 70 -189 70 -130 0 9 -9 34 -20 56
-14 27 -20 55 -18 87 2 37 0 47 -14 50 -10 2 -18 -2 -19 -10z"/>
<path d="M815 720 c-5 -8 41 -90 51 -90 1 0 0 17 -3 38 -8 52 -32 78 -48 52z"/>
<path d="M723 619 c-40 -39 -73 -72 -73 -74 0 -1 11 0 24 2 32 7 64 -12 72
-42 3 -14 9 -25 13 -25 12 0 90 70 101 91 8 15 4 29 -22 69 -18 27 -35 50 -38
50 -3 0 -38 -32 -77 -71z m91 5 c22 -22 20 -50 -6 -74 -26 -24 -36 -25 -60 -3
-24 22 -23 32 9 65 31 32 36 34 57 12z"/>
<path d="M390 536 c-10 -31 -9 -36 16 -61 26 -26 29 -27 67 -15 21 6 37 13 35
14 -1 1 -26 24 -55 50 l-51 47 -12 -35z"/>
<path d="M833 515 c-42 -42 -42 -43 -18 -49 28 -7 75 33 75 64 0 33 -14 29
-57 -15z"/>
<path d="M586 502 c-38 -26 -38 -27 -15 -33 31 -9 108 -10 137 -3 24 7 29 33
10 52 -21 21 -90 13 -132 -16z"/>
<path d="M872 463 c5 -26 38 -29 38 -4 0 15 -6 21 -21 21 -14 0 -19 -5 -17
-17z"/>
<path d="M362 453 c4 -22 43 -25 43 -3 0 8 -11 16 -23 18 -19 3 -23 0 -20 -15z"/>
<path d="M1055 1169 c75 -58 153 -179 135 -209 -4 -7 -4 -24 1 -37 6 -16 4
-65 -6 -139 -20 -157 -17 -183 6 -49 33 191 26 265 -33 346 -32 45 -49 60
-102 92 l-31 19 30 -23z"/>
<path d="M1465 1043 c-26 -7 -54 -32 -71 -65 -19 -36 -18 -132 2 -173 28 -61
111 -80 197 -46 26 10 27 14 27 76 l0 65 -50 0 c-27 0 -53 0 -57 0 -5 1 -9 -8
-11 -20 -3 -17 2 -20 32 -20 34 0 36 -2 36 -34 0 -31 -3 -34 -34 -40 -69 -13
-106 26 -106 114 0 37 6 56 23 76 28 32 76 37 106 10 16 -14 23 -15 41 -6 18
10 19 14 8 27 -27 33 -90 49 -143 36z"/>
<path d="M1954 1040 c-79 -32 -99 -190 -34 -263 26 -29 34 -32 85 -32 51 0 59
3 85 32 36 40 47 117 28 183 -22 72 -95 108 -164 80z m92 -54 c25 -21 28 -29
28 -91 0 -62 -3 -70 -29 -92 -31 -27 -70 -25 -92 4 -35 45 -22 171 19 191 34
16 44 14 74 -12z"/>
<path d="M1680 895 l0 -145 90 0 c83 0 90 1 90 20 0 18 -7 20 -65 20 l-65 0 0
125 0 125 -25 0 -25 0 0 -145z"/>
<path d="M2180 896 l0 -146 75 0 c87 0 119 12 135 51 17 41 5 78 -31 93 l-30
13 25 17 c30 19 35 60 12 92 -12 16 -29 20 -100 23 l-86 3 0 -146z m134 98
c22 -9 20 -51 -3 -64 -11 -5 -33 -10 -50 -10 -29 0 -31 2 -31 40 0 39 1 40 34
40 19 0 41 -3 50 -6z m20 -130 c35 -35 12 -65 -53 -72 l-51 -5 0 47 0 46 44 0
c27 0 51 -6 60 -16z"/>
<path d="M2473 895 l-49 -145 27 0 c24 0 29 5 35 35 l6 36 61 -3 c59 -3 61 -4
69 -35 7 -26 14 -33 33 -33 14 0 25 3 25 7 0 4 -21 69 -46 145 l-47 138 -32 0
-33 0 -49 -145z m84 -33 c-21 -2 -41 -1 -43 1 -3 3 12 58 33 117 3 9 15 -13
28 -50 l22 -65 -40 -3z"/>
<path d="M2730 895 l0 -145 85 0 c78 0 85 2 85 20 0 18 -7 20 -62 20 l-63 0 4
125 3 125 -26 0 -26 0 0 -145z"/>
<path d="M76 632 c-22 -152 -16 -207 33 -284 28 -44 127 -126 138 -114 4 3 1
6 -5 6 -24 0 -118 106 -140 157 -25 59 -29 141 -11 253 6 38 9 80 7 92 -2 13
-12 -37 -22 -110z"/>
<path d="M1390 508 l0 -148 91 0 c88 0 90 1 87 23 -3 21 -7 22 -65 19 l-63 -4
0 130 0 130 -25 -2 -25 -1 0 -147z"/>
<path d="M1632 517 c-24 -72 -46 -138 -49 -144 -3 -9 4 -13 20 -13 20 0 28 7
37 35 11 35 12 35 70 35 59 0 60 0 68 -32 6 -26 14 -34 36 -36 21 -3 27 0 24
10 -3 7 -25 73 -49 146 l-43 132 -36 0 -35 0 -43 -133z m97 36 c7 -27 15 -56
18 -65 5 -15 -2 -18 -39 -18 l-44 0 20 65 c12 36 23 65 26 65 3 0 12 -21 19
-47z"/>
<path d="M1880 505 l0 -145 73 0 c81 0 114 13 136 52 23 41 6 78 -47 105 -2 1
6 11 17 22 12 12 21 34 21 50 0 46 -30 61 -122 61 l-78 0 0 -145z m148 73 c3
-22 -2 -30 -23 -38 -14 -5 -37 -10 -51 -10 -21 0 -24 4 -24 41 l0 40 48 -3
c43 -3 47 -5 50 -30z m10 -100 c33 -33 -7 -78 -70 -78 l-38 0 0 45 0 45 48 0
c26 0 53 -5 60 -12z"/>
<path d="M1050 243 c-12 -16 -47 -43 -78 -60 -61 -35 -56 -46 6 -14 40 21 123
101 105 101 -6 0 -21 -12 -33 -27z"/>
<path d="M685 153 c89 -15 156 -22 183 -18 24 4 41 9 38 13 -11 10 -66 11 -66
0 0 -5 -8 -7 -17 -4 -26 8 -233 36 -257 35 -12 -1 42 -12 119 -26z"/>
</g>
</svg>
